<svg xmlns="http://www.w3.org/2000/svg" width="45" height="38" viewBox="0 0 45 38">
  <defs>
    <style>
      .cls-1 {
        fill: #fff;
        fill-rule: evenodd;
      }
    </style>
  </defs>
  <path class="cls-1" d="M10.273,39.638c2.6-.741,1.993-1.114,6.854-4.214-0.026.026-9.819-4.845-8.158-11.869-1.164-.058-3.654-0.678-3.705-1.882C5.249,21.317,6.794,21.1,7.2,21.136c-0.959-.316-1.932-0.876-1.932-1.7,0-.9,1.41-0.436,2.432-0.444-0.661-.075-3.065-1.687-2.773-2.462,0.312-.831,1.842.319,2.722,0.291a6.666,6.666,0,0,1-2.673-1.792c-0.378-.44-0.765-1.537-0.095-1.553a5.655,5.655,0,0,1,1.683.344C5.6,13.53,4.482,12.73,4.585,11.589c0.1-1.066,1.616.576,2.029,0.735C5.973,11.661,4.2,9.7,4.984,8.546,5.245,8.163,6.737,9.925,7.1,10.132,6.828,9.844,4.589,6.387,5.7,6.3c0.342-.026,1.612,2.139,2.006,2.658a10.23,10.23,0,0,0,1.1,1.458C8.451,9.931,6.429,6.424,7.343,6c0.421-.193,3.116,5,3.469,5.763C10.4,10.8,8.969,6.55,10.427,6.879c0.3,0.068.43,1.881,0.534,2.257a13.544,13.544,0,0,0,3.225,5.936c1.861,1.854,5.768,4.265,9.3,7.232a48.365,48.365,0,0,1,5.047,5.665c0.383-.96.88-1.93,1.34-2.857,0.576-1.16,1.664-4.167,2.731-4.551,0.823-.3.8,0.687,1.1,0.935,0.1-.482-1.165-3.539.528-4.714,0.437-.3,1.519,1.088,1.723,1.674-0.3-1.36-.844-3.953.206-4.48,0.733-.367,1.323.657,1.849,1.686a11.67,11.67,0,0,1-.641-2.336c-0.083-.656-0.315-1.733.283-2.218,1.347-1.092,1.3,1.05,2.285,2.592a14.268,14.268,0,0,1-.442-2.932,2.7,2.7,0,0,1,.791-2.241c1.632-1.028,1.363,2.909,1.76,4,0.336-1.421,0-2.977.383-4.158,0.244-.75.563-2.266,1.67-2.2a0.679,0.679,0,0,1,.557.893,16.014,16.014,0,0,0-.107,2.241c0.006,0.577.348,2.713,0.318,3.753,0.155-1.17.612-3.676,0.8-4.271,0.208-.675,1.307-2.121,1.777-1.347a7.009,7.009,0,0,1,.339,2.147c0.039,0.524.129,1.055,0.175,1.583a11.128,11.128,0,0,1-1.249,6.293c-1.743,3.245-6.184,6.956-8.24,9.471-1.6,1.959-2.207,2.363-2.113,3.743a6.7,6.7,0,0,0,2.95-.591,4.024,4.024,0,0,1,4.093-.557c1.675,0.557,1.728,3.029,1.489,3.523a4.794,4.794,0,0,1,.191,2.364,11.107,11.107,0,0,0-1.215-1.115,2.188,2.188,0,0,0-1.312-.339,26.371,26.371,0,0,0-2.5,1.686c-1.489,1.113-2.419.927-3.907,2.226S29.628,41.4,27.023,41.4s-6.512-.185-9.675.556S9.841,44,6.87,44s-3.208-.872-3.791-1.987C2.262,40.453,7.668,40.38,10.273,39.638Z" transform="translate(-3 -6)"/>
</svg>
