<svg xmlns="http://www.w3.org/2000/svg" width="24.969" height="47" viewBox="0 0 24.969 47">
  <defs>
    <style>
      .cls-1 {
        fill: #fff;
        fill-rule: evenodd;
      }
    </style>
  </defs>
  <path class="cls-1" d="M34.888,9.3c-0.361-.637-1.134,0-2.2-1.855-0.623-1.087-2.584-.963-2.623-1.427C29.973,4.876,30.139,2,29.288,2s-1.819,1.926-2.2,2.877S26.1,5.8,25.273,6.361c-1.743,1.177-2.835,4.471-2.457,6.279a8.529,8.529,0,0,1-5.2,4.281c-2.93.666-5.1,5.328-6.333,8.087S10.908,35,11.191,36.331a7.9,7.9,0,0,1-.088,2.407c-4.126,7.663,4,12.543,13.144,9.189,3.865-1.417,1.735-2.026-1.763-1.308-3.781.775-11.676-.09-9.86-5.132a33.147,33.147,0,0,0,5.388.276c1.677,0.058,7.185.366,8.237-.359,0.98-2.255-1.621-2.214-2.776-2.319a3.363,3.363,0,0,0,1.444-2.536c1.016,2.31,2,5.894,5.365,4.538a0.885,0.885,0,0,0,.378-1.332,0.947,0.947,0,0,0,.756-1.047c0-.856-1.985-0.38-2.174-1.142s-0.095-7.516-.095-8.468,0.2-2.6,2.125-5.148c2.339-3.092.451-9.256,0.638-10.085,0.2-.89,1.7-1.142,2.481-2.283A2.66,2.66,0,0,0,34.888,9.3Z" transform="translate(-10 -2)"/>
</svg>
