<svg xmlns="http://www.w3.org/2000/svg" width="47" height="26" viewBox="0 0 47 26">
  <defs>
    <style>
      .cls-1 {
        fill: #fff;
        fill-rule: evenodd;
      }
    </style>
  </defs>
  <path class="cls-1" d="M3.8,23.913c-0.907-1.228-3.056-7.16-.815-7.41s6.522,3.69,8.7,4.376c1.913,0.6,2.233.58,3.609-.064A20.172,20.172,0,0,1,19.851,18.5c-2.13-3.237-5.709-5.5-3.932-6.026,1.479-.436,6.374-0.613,11.5-0.336,7.272,0.395,10.071,2.6,11.324,5.17,7.33,2.24,10.4,8.389,10.255,9.626-0.06.518-5.343,4.1-13.783,4.283-1.223,2.541-2.828,5.676-4.315,6.468-1.723.918-2.742-.186-3.381-2.829A5.1,5.1,0,0,1,28,31.112c-0.7-.077-1.39-0.18-2.056-0.3-0.066.025-.137,0.049-0.215,0.072-1.4.433-7.809,0.465-8.089-.217a3.984,3.984,0,0,1-.133-2.849q-0.559-.3-1.065-0.6c-2.295-1.123-2.767-.979-4.74-0.4s-6.356,6.671-7.5,5.457S3.611,26.6,3.79,25.661,4.708,25.14,3.8,23.913Z" transform="translate(-2 -12)"/>
</svg>
