<svg xmlns="http://www.w3.org/2000/svg" width="40" height="27" viewBox="0 0 40 27">
  <defs>
    <style>
      .cls-1 {
        fill: #fff;
        fill-rule: evenodd;
      }
    </style>
  </defs>
  <path class="cls-1" d="M43.936,18.963a3.947,3.947,0,0,0-1.919-2.384C41.72,16.39,43,9.356,43,9.356a0.661,0.661,0,1,0-.413-0.089s-1.4,7-1.621,7.087a2.214,2.214,0,0,1-1.226-.028c-0.059-.142-0.116-7.036-0.116-7.036A0.659,0.659,0,1,0,39.2,9.261s-0.07,7.065-.429,7.149a6.223,6.223,0,0,0-1.587.8c-1.7,1.166-2.378,5.5-2.822,7.568-1.074-2.2-2.112-6.988-5.349-10.054C24.4,10.35,13.074,10.131,9.789,18.9c-2.531,6.754-.365,10.821.3,12.017-2.234.037-3.764,0.048-3.764,0.048-2.1.446-4.356,3.118,0.9,3.267s25.331,2.034,29.467-.7c3.276-2.168,4.688-6.227,4.388-8.454S44.538,22.08,43.936,18.963Z" transform="translate(-4 -8)"/>
</svg>
